<svg width="435" height="350" viewBox="0 0 435 350" fill="none" xmlns="http://www.w3.org/2000/svg">
<path d="M272.774 272.741C247.755 297.769 213.185 313.25 175 313.25C98.6466 313.25 36.75 251.353 36.75 175C36.75 98.6466 98.6466 36.75 175 36.75C213.168 36.75 247.724 52.2173 272.741 77.2257L298.727 51.2396C267.06 19.5806 223.316 0 175 0C78.3502 0 0 78.3502 0 175C0 271.65 78.3502 350 175 350C223.334 350 267.091 330.405 298.761 298.727L272.774 272.741Z" fill="#FCB421"/>
<path d="M267.544 82.423C243.857 58.7446 211.139 44.1 175 44.1C102.706 44.1 44.1001 102.706 44.1001 175C44.1001 247.294 102.706 305.9 175 305.9C211.156 305.9 243.888 291.241 267.577 267.543L241.591 241.557C224.552 258.605 201.008 269.15 175 269.15C123.002 269.15 80.8501 226.998 80.8501 175C80.8501 123.002 123.002 80.85 175 80.85C200.99 80.85 224.521 91.3812 241.557 108.409L267.544 82.423Z" fill="#FCB421"/>
<path d="M236.36 113.606C220.654 97.9085 198.961 88.2 175 88.2C127.062 88.2 88.2 127.062 88.2 175C88.2 222.938 127.062 261.8 175 261.8C222.938 261.8 261.8 222.938 261.8 175C261.8 174.989 261.8 174.978 261.8 174.966H225.05C225.05 174.978 225.05 174.989 225.05 175C225.05 202.642 202.642 225.05 175 225.05C147.358 225.05 124.95 202.642 124.95 175C124.95 147.358 147.358 124.95 175 124.95C188.812 124.95 201.318 130.545 210.374 139.593L236.36 113.606Z" fill="#FCB421"/>
<path d="M175 175H241.85V211.75H175V175Z" fill="#FCB421"/>
<rect x="299" y="157" width="136" height="36" fill="#FCB421"/>
<rect x="349" y="243" width="136" height="36" transform="rotate(-90 349 243)" fill="#FCB421"/>
</svg>
