<svg width="854" height="1000" viewBox="0 0 854 1000" fill="none" xmlns="http://www.w3.org/2000/svg">
  <path d="M779.356 779.259C707.871 850.768 609.101 895 500 895C281.848 895 105 718.152 105 500C105 281.848 281.848 105 500 105C609.052 105 707.782 149.192 779.259 220.645L853.506 146.399C763.027 55.9447 638.047 0 500 0C223.858 0 0 223.858 0 500C0 776.142 223.858 1000 500 1000C638.096 1000 763.116 944.016 853.602 853.505L779.356 779.259Z" fill="#FDBE14"/>
  <path d="M764.41 235.494C696.733 167.842 603.253 126 500 126C293.446 126 126 293.446 126 500C126 706.555 293.446 874 500 874C603.302 874 696.822 832.119 764.506 764.409L690.26 690.163C641.577 738.871 574.307 769 500 769C351.435 769 231 648.565 231 500C231 351.435 351.435 231 500 231C574.258 231 641.488 261.089 690.164 309.74L764.41 235.494Z" fill="#FDBE14"/>
  <path d="M675.315 324.59C630.439 279.739 568.459 252 500 252C363.033 252 252 363.033 252 500C252 636.967 363.033 748 500 748C636.967 748 748 636.967 748 500C748 499.968 748 499.936 748 499.904H643C643 499.936 643 499.968 643 500C643 578.977 578.977 643 500 643C421.023 643 357 578.977 357 500C357 421.023 421.023 357 500 357C539.464 357 575.194 372.986 601.068 398.836L675.315 324.59Z" fill="#FDBE14"/>
  <path d="M500 500H691V605H500V500Z" fill="#FDBE14"/>
</svg>
