<svg width="80" height="56" viewBox="0 0 80 56" fill="none" xmlns="http://www.w3.org/2000/svg">
<circle cx="20" cy="20" r="18.8889" fill="#870AC1" stroke="#FCB421" stroke-width="2.22222"/>
<mask id="mask0_37_969" style="mask-type:alpha" maskUnits="userSpaceOnUse" x="0" y="0" width="40" height="40">
<circle cx="20" cy="20" r="20" fill="#D9D9D9"/>
</mask>
<g mask="url(#mask0_37_969)">
<circle cx="20" cy="42.5" r="18.8889" stroke="#FCB421" stroke-width="2.22222"/>
</g>
<path d="M25.5557 17.4999C25.5557 20.5682 23.0684 23.0555 20.0002 23.0555C16.9319 23.0555 14.4446 20.5682 14.4446 17.4999C14.4446 14.4317 16.9319 11.9444 20.0002 11.9444C23.0684 11.9444 25.5557 14.4317 25.5557 17.4999ZM20.0002 27.7777C25.6764 27.7777 30.2779 23.1762 30.2779 17.4999C30.2779 11.8237 25.6764 7.22214 20.0002 7.22214C14.3239 7.22214 9.72239 11.8237 9.72239 17.4999C9.72239 23.1762 14.3239 27.7777 20.0002 27.7777Z" fill="#FCB421" stroke="#870AC1" stroke-width="2.22222"/>
<circle cx="60" cy="20" r="19" fill="#870AC1" stroke="#FCB421" stroke-width="2"/>
<mask id="mask1_37_969" style="mask-type:alpha" maskUnits="userSpaceOnUse" x="40" y="0" width="40" height="40">
<circle cx="60" cy="20" r="20" fill="#D9D9D9"/>
</mask>
<g mask="url(#mask1_37_969)">
<circle cx="60" cy="42.5" r="18.8889" stroke="#FCB421" stroke-width="2.22222"/>
</g>
<path d="M65.5557 17.4999C65.5557 20.5682 63.0684 23.0555 60.0002 23.0555C56.9319 23.0555 54.4446 20.5682 54.4446 17.4999C54.4446 14.4317 56.9319 11.9444 60.0002 11.9444C63.0684 11.9444 65.5557 14.4317 65.5557 17.4999ZM60.0002 27.7777C65.6764 27.7777 70.2779 23.1762 70.2779 17.4999C70.2779 11.8237 65.6764 7.22214 60.0002 7.22214C54.3239 7.22214 49.7224 11.8237 49.7224 17.4999C49.7224 23.1762 54.3239 27.7777 60.0002 27.7777Z" fill="#FCB421" stroke="#870AC1" stroke-width="2.22222"/>
<circle cx="40" cy="36" r="18.8889" fill="#870AC1" stroke="#FCB421" stroke-width="2.22222"/>
<mask id="mask2_37_969" style="mask-type:alpha" maskUnits="userSpaceOnUse" x="20" y="16" width="40" height="40">
<circle cx="40" cy="36" r="20" fill="#D9D9D9"/>
</mask>
<g mask="url(#mask2_37_969)">
<circle cx="40" cy="58.5" r="18.8889" stroke="#FCB421" stroke-width="2.22222"/>
</g>
<path d="M45.5557 33.4999C45.5557 36.5682 43.0684 39.0555 40.0002 39.0555C36.9319 39.0555 34.4446 36.5682 34.4446 33.4999C34.4446 30.4317 36.9319 27.9444 40.0002 27.9444C43.0684 27.9444 45.5557 30.4317 45.5557 33.4999ZM40.0002 43.7777C45.6764 43.7777 50.2779 39.1762 50.2779 33.4999C50.2779 27.8237 45.6764 23.2221 40.0002 23.2221C34.3239 23.2221 29.7224 27.8237 29.7224 33.4999C29.7224 39.1762 34.3239 43.7777 40.0002 43.7777Z" fill="#FCB421" stroke="#870AC1" stroke-width="2.22222"/>
</svg>
